<?xml version="1.0" standalone="no"?>
<!DOCTYPE svg PUBLIC "-//W3C//DTD SVG 20010904//EN"
 "http://www.w3.org/TR/2001/REC-SVG-20010904/DTD/svg10.dtd">
<svg version="1.0" xmlns="http://www.w3.org/2000/svg"
 width="582.000000pt" height="582.000000pt" viewBox="0 0 582.000000 582.000000"
 preserveAspectRatio="xMidYMid meet">
<metadata>
Created by potrace 1.14, written by Peter Selinger 2001-2017
</metadata>
<g transform="translate(0.000000,582.000000) scale(0.100000,-0.100000)"
fill="#000000" stroke="none">
<path d="M2808 5664 c-2 -1 -48 -6 -103 -9 -55 -3 -107 -7 -115 -10 -8 -2 -32
-6 -52 -9 -122 -18 -119 -18 -289 -60 -79 -19 -184 -49 -234 -66 -49 -17 -91
-30 -92 -31 -2 0 -23 -8 -49 -19 -25 -11 -50 -20 -55 -20 -5 0 -9 -5 -9 -12 0
-6 -3 -9 -6 -5 -5 5 -184 -82 -284 -140 -84 -48 -290 -196 -342 -245 -10 -10
-20 -18 -22 -18 -12 0 -217 -199 -296 -287 -137 -152 -203 -243 -303 -413 -55
-95 -189 -360 -181 -360 3 0 -5 -19 -17 -42 -12 -24 -22 -45 -22 -48 0 -3 -1
-9 -3 -15 -2 -5 -14 -44 -27 -85 -34 -103 -56 -180 -62 -210 -3 -14 -7 -36
-10 -50 -8 -38 -14 -70 -21 -115 -4 -22 -8 -49 -10 -60 -20 -120 -27 -212 -29
-408 -2 -180 14 -365 39 -477 3 -14 9 -41 12 -60 7 -37 10 -52 25 -115 5 -22
12 -53 14 -68 3 -15 10 -38 17 -50 6 -12 10 -22 9 -22 -7 0 26 -112 49 -170 4
-11 14 -36 21 -55 21 -61 125 -271 179 -365 69 -119 160 -253 234 -345 67 -83
316 -335 385 -390 24 -19 48 -40 55 -45 20 -20 211 -152 236 -165 14 -7 27
-16 30 -19 14 -19 268 -152 335 -177 28 -10 59 -23 70 -30 21 -13 251 -92 286
-99 11 -2 29 -7 39 -10 10 -3 27 -7 37 -9 10 -2 36 -9 58 -14 41 -11 113 -23
215 -37 19 -2 46 -7 60 -9 115 -25 576 -26 700 -1 13 2 40 7 60 10 20 3 47 8
60 10 14 3 41 8 60 11 19 3 62 12 95 21 33 8 67 16 75 18 25 6 184 55 200 62
8 3 20 7 25 8 6 2 46 18 90 36 44 18 82 34 85 34 10 2 196 97 245 125 28 16
68 39 89 51 22 12 46 28 54 35 7 8 17 14 22 14 5 0 15 6 22 13 7 6 38 29 68
50 30 20 67 47 80 60 14 12 48 40 75 62 60 48 218 205 300 299 33 37 65 73 71
80 24 26 133 175 159 216 15 25 32 48 37 51 5 3 10 10 10 15 1 5 11 25 23 44
25 40 166 317 165 325 0 3 7 22 15 43 77 183 164 512 180 682 2 19 7 60 11 90
14 104 7 550 -11 635 -2 11 -6 29 -8 40 -3 11 -8 42 -11 68 -15 98 -64 297
-93 377 -4 8 -7 20 -9 25 -5 20 -54 145 -75 192 -12 26 -30 68 -41 93 -11 25
-24 52 -29 60 -5 8 -19 35 -31 60 -12 25 -26 47 -30 48 -4 2 -8 8 -8 14 0 22
-189 304 -244 365 -6 6 -29 33 -51 60 -109 133 -353 357 -494 453 -29 19 -58
41 -66 48 -7 6 -18 12 -24 12 -6 0 -11 5 -11 10 0 6 -4 10 -10 10 -5 0 -34 16
-64 35 -30 19 -59 35 -65 35 -5 0 -11 4 -13 8 -5 15 -268 138 -383 180 -161
59 -372 117 -460 127 -11 2 -30 5 -42 8 -12 3 -50 8 -84 12 -35 4 -66 8 -69
10 -7 4 -156 15 -263 19 -32 1 -60 -2 -63 -6 -3 -4 -10 -5 -17 -3 -16 7 -76
13 -79 9z"/>
</g>
</svg>
