<?xml version="1.0" encoding="UTF-8"?><svg id="Ebene_1" xmlns="http://www.w3.org/2000/svg" viewBox="0 0 287.71 195.09"><defs><style>.cls-1{fill:#1d1d1b;}.cls-2{fill:none;stroke:#1d1d1b;stroke-linecap:round;stroke-linejoin:round;stroke-width:27px;}</style></defs><path class="cls-1" d="M233.83,22c17.61,0,31.88,14.28,31.88,31.88v87.32c0,17.61-14.28,31.88-31.88,31.88H53.88c-17.61,0-31.88-14.28-31.88-31.88V53.88c0-17.61,14.28-31.88,31.88-31.88H233.83m0-22H53.88C24.17,0,0,24.17,0,53.88v87.32c0,29.71,24.17,53.88,53.88,53.88H233.83c29.71,0,53.88-24.17,53.88-53.88V53.88c0-29.71-24.17-53.88-53.88-53.88h0Z"/><path class="cls-2" d="M16.12,53.89l112.15,83.27c10.14,5.4,21.64,5.4,31.78,0l111.55-83.27"/></svg>